<svg width="160" height="40" viewBox="0 0 160 40" fill="none" xmlns="http://www.w3.org/2000/svg">
  <!-- Your UniFi icon -->
  <g transform="translate(0, 4) scale(0.03)">
    <path fill="#5A31B4" d="m574 3 3.49.438C625.448 9.538 672.82 22.32 717 42l2.832 1.241C755.8 59.018 789.792 79.136 821 103l1.753 1.337C835.338 113.973 847.29 124.325 859 135l2.754 2.473c10.32 9.33 20.614 18.95 29.594 29.597 2.068 2.415 4.238 4.726 6.402 7.055 5.278 5.79 10.082 11.888 14.863 18.09a437 437 0 0 0 4.106 5.191C974.457 269.574 1009.535 358.628 1021 450l.458 3.456c5.064 39.526 4.77 81.052-.458 120.544l-.438 3.49c-6.1 47.957-18.882 95.329-38.562 139.51l-1.241 2.832C964.982 755.8 944.864 789.792 921 821l-1.337 1.753C910.027 835.338 899.675 847.29 889 859l-2.473 2.754c-9.33 10.32-18.95 20.614-29.597 29.594-2.415 2.068-4.726 4.238-7.055 6.402-5.79 5.278-11.888 10.082-18.09 14.863a437 437 0 0 0-5.191 4.106C754.426 974.457 665.372 1009.535 574 1021l-3.456.458c-39.526 5.064-81.052 4.77-120.544-.458l-3.49-.438c-47.957-6.1-95.329-18.882-139.51-38.562l-2.832-1.241C268.2 964.982 234.208 944.864 203 921l-1.753-1.337C188.662 910.027 176.71 899.675 165 889l-2.754-2.473c-10.32-9.33-20.614-18.95-29.594-29.597-2.068-2.415-4.238-4.726-6.402-7.055-5.278-5.79-10.082-11.888-14.863-18.09a437 437 0 0 0-4.106-5.191C49.543 754.426 14.465 665.372 3 574l-.458-3.456C-2.522 531.018-2.228 489.492 3 450l.438-3.49C9.538 398.552 22.32 351.18 42 307l1.241-2.832C59.018 268.2 79.136 234.208 103 203l1.337-1.753C113.973 188.662 124.325 176.71 135 165l2.473-2.754c9.33-10.32 18.95-20.614 29.597-29.594 2.415-2.068 4.726-4.238 7.055-6.402 5.79-5.278 11.888-10.082 18.09-14.863a437 437 0 0 0 5.191-4.106C269.574 49.543 358.628 14.465 450 3l3.456-.458C492.982-2.522 534.508-2.228 574 3"/><path fill="#00BAD6" d="m426.733 321.853 2.302-.011q3.802-.015 7.606-.019l5.466-.02a9719 9719 0 0 1 17.928-.041l6.186-.013q14.535-.029 29.071-.041 16.746-.015 33.49-.077 12.965-.044 25.93-.048c5.155-.002 10.31-.011 15.465-.036q7.283-.035 14.565-.018 2.66.001 5.32-.02c16.046-.117 29.83 2.366 42.188 13.522 10.244 10.71 14.058 22.987 14.025 37.421l.015 3.437c.014 3.74.013 7.48.01 11.22l.014 7.828q.01 8.201.002 16.402c-.006 6.295.006 12.59.027 18.886.02 6.082.023 12.164.02 18.246q0 3.864.015 7.727c.013 3.61.006 7.221-.006 10.832l.023 3.19c-.101 14.48-4.899 26.916-14.872 37.452-12.473 11.508-24.954 12.775-41.103 12.716q-2.83.007-5.66.016c-5.105.014-10.21.009-15.316-.001-5.353-.008-10.707 0-16.061.004q-13.485.007-26.971-.016a9840 9840 0 0 0-31.136.006q-13.389.02-26.778.007c-5.324-.004-10.649-.005-15.973.005q-7.511.012-15.023-.015a951 951 0 0 0-5.498.004c-16.14.053-28.402-2.192-40.692-13.398-9.954-10.414-13.624-23.43-13.57-37.484l-.011-3.447c-.01-3.75-.003-7.499.003-11.249l-.005-7.842q-.006-8.213.01-16.427.015-9.467-.003-18.934-.014-9.139-.004-18.278.003-3.875-.005-7.748c-.005-3.616.003-7.232.014-10.848l-.012-3.213c.08-14.14 4.194-25.676 14.208-36.03 10.288-9.603 20.719-13.65 34.796-13.647"/><path fill="#FB2497" d="M807.902 385.98c2.476 1.912 4.796 3.904 7.098 6.02l2.29 2.047C832.304 408.185 841.302 427.175 846 447l.496 2.002c5.464 22.916 3.612 48.232-1.496 70.998l-.567 2.543c-1.277 5.549-2.775 11.01-4.433 16.457l-.713 2.354c-9.67 31.191-26.427 59.649-46.85 84.958l-1.458 1.81c-8.243 10.028-17.285 19.37-26.458 28.543a1193 1193 0 0 0-4.56 4.599c-5.59 5.622-11.325 10.842-17.531 15.794a155 155 0 0 0-5.899 4.954C700.341 714 700.341 714 693 714l-1-114-15 7c-19.064 7.932-39.642 12.144-60.25 12.313l-3.527.087c-11.957.087-20.461-2.677-29.121-11.021-6.097-6.901-7.477-14.258-7.38-23.211.704-8.034 4.345-14.778 10.278-20.168 8.716-7.065 17.865-9.96 28.875-11 18.371-1.749 34.857-9.368 49.125-21l2.578-2.082C682.106 518.552 691.484 501.711 695 483l.516-2.058c.687-4.177.66-8.302.695-12.528l.086-5.762c.04-2.999.078-5.997.104-8.996.29-30.138.29-30.138 7.287-42.906l1.057-2.006c9.173-16.985 21.878-29.052 40.396-34.982 21.588-5.751 44.605-.17 62.761 12.218"/><path fill="#4ECC49" d="m259.563 372.75 3.423-.062c16.189-.075 31.089 5.583 42.776 16.945 19.512 20.636 21.84 41.854 21.653 68.973-.117 25.24 5.32 45.386 22.585 64.394l1.598 1.844c15.613 16.93 38.01 26.604 60.464 29.531 10.757 1.439 20.034 4.505 27.54 12.762C446.255 576 446.768 585.233 446 596c-1.762 8.046-6.048 13.776-12.914 18.246-8.368 4.55-17.229 5.118-26.586 5.067l-3.202-.015c-9.046-.134-17.515-1.198-26.298-3.298l-2.307-.536c-15.9-3.751-30.015-9.125-44.693-16.464v113c-10.138-5.632-10.138-5.632-13.473-8.094l-2.261-1.663-2.329-1.743-2.48-1.843c-7.4-5.536-14.586-11.316-21.703-17.211a457 457 0 0 0-4.945-4.012c-4.63-3.723-9.015-7.489-13.141-11.762-1.776-1.78-3.633-3.411-5.543-5.047-6.602-5.708-12.65-11.92-18.324-18.547-1.993-2.299-4.053-4.528-6.113-6.765C199.578 590.777 172.568 530.457 175 470c1.522-28.033 10.878-53.988 31-74l2.73-2.73c14.416-13.75 31.107-20.432 50.833-20.52"/><path fill="#00C7D9" d="m426.733 321.853 2.302-.011q3.802-.015 7.606-.019l5.466-.02a9719 9719 0 0 1 17.928-.041l6.186-.013q14.535-.029 29.071-.041 16.746-.015 33.49-.077 12.965-.044 25.93-.048c5.155-.002 10.31-.011 15.465-.036q7.283-.035 14.565-.018 2.66.001 5.32-.02c16.046-.117 29.83 2.366 42.188 13.522 8.414 8.796 14.032 20.364 13.926 32.627l-.051 2.28-.027 2.36c-.024 1.901-.06 3.802-.098 5.702-32.435.82-64.847 1.142-97.291 1.101-6.038-.006-12.075-.006-18.113-.008q-17.018-.005-34.037-.021-19.43-.016-38.861-.022-39.849-.016-79.698-.05-.022-3.853-.035-7.707l-.014-2.194c-.034-13.233 4.693-23.99 13.986-33.599 10.288-9.603 20.719-13.65 34.796-13.647"/><path fill="#6DD141" d="M322.816 240.207c2.495 2.182 4.854 4.437 7.184 6.793l1.668 1.566c11.295 11.599 14.75 27.721 14.696 43.234-.297 17.37-6.606 31.063-18.641 43.66-13.929 12.99-30.296 17.104-48.817 16.817-15.919-.619-28.852-8.26-39.906-19.277l-1.934-1.863c-11.27-11.722-15.587-27.618-15.416-43.494.522-16.707 7.364-31.052 19.35-42.643l2-1.957c22.25-20.59 56.063-21.45 79.816-2.836"/><path fill="#FB2599" d="M779.156 240.406c14.086 11.746 22.357 28.05 24.102 46.29.673 16.476-4.931 32.347-15.758 44.741A273 273 0 0 1 783 336l-1.566 1.668c-11.622 11.318-27.764 14.75-43.304 14.696-17.321-.296-31.127-7.42-43.43-19.466-3.974-4.266-6.964-8.765-9.7-13.898l-1.203-2.234c-7.007-14.329-7.626-29.902-3.11-45.036C686.872 254.155 697.345 241.38 714 233c22.22-9.96 45.79-7.359 65.156 7.406"/><path fill="#0084C2" d="M646 378v39H378v-38q41.782-.198 83.566-.391 19.41-.09 38.819-.182a222357 222357 0 0 1 51.797-.242Q599.09 377.96 646 378"/><path fill="#FC9D08" d="M447 660c2.563 1.5 2.563 1.5 4 4 .403 5.977-.504 10.525-2.5 16.125-1.661 4.714-2.815 8.813-2.5 13.875 38.38 15.402 84.501 13.906 122.71-2.004 14.505-6.311 27.77-14.883 39.93-24.984 9.23-7.634 9.23-7.634 14.298-7.887 4.086.518 6.927 2.198 10.062 4.875 2.023 3.034 2.315 3.854 2.375 7.313l.086 2.238c-2.284 12.137-20.046 22.54-29.641 29.207-4.824 3.292-9.757 6.335-14.82 9.242l-1.912 1.101c-39.888 22.725-86.694 27.423-130.955 16.083-6.054-1.662-11.937-3.824-17.817-6.012-3.044-1.283-3.044-1.283-5.316-1.172l-.58 1.605a928 928 0 0 1-2.67 7.207l-.91 2.526c-2.94 7.787-2.94 7.787-6.84 9.662-3.207.995-5.784.97-9 0-3.348-2.847-5.59-6.351-8-10l-2.16-3.16c-2.116-3.118-4.183-6.266-6.247-9.419-3.297-5.011-6.637-9.994-9.968-14.984a4607 4607 0 0 1-5.956-8.948 200 200 0 0 0-3.031-4.408c-2.073-2.93-2.636-3.966-2.7-7.706 1.331-4.23 2.344-4.975 6.062-7.375 3.6-1.426 7.282-2.513 10.996-3.602l3.231-.977c3.4-1.026 6.805-2.036 10.21-3.046q3.432-1.03 6.862-2.062 4.837-1.458 9.679-2.902c3.874-1.154 7.733-2.314 11.567-3.598 3.854-1.276 7.45-1.406 11.455-.813"/><path fill="#FCA905" d="M567 193c3.647 2.535 6.323 5.402 9.063 8.875a476 476 0 0 0 10.812 13A2142 2142 0 0 1 604 235l1.406 1.597c2.262 2.604 3.534 4.069 4.157 7.528-.731 3.734-1.562 4.513-4.563 6.875-3.288 1.44-6.678 2.497-10.102 3.566l-3.005.97a1829 1829 0 0 1-9.518 3.026l-6.34 2.038A2157 2157 0 0 1 559 266l-2.73.863-2.646.82-2.344.733c-3.781.969-7.44 1.404-11.28.584-2.625-2.062-2.625-2.062-4-5 0-5.918 2.365-11.458 4.258-17.012.723-2.91.799-4.239-.258-6.988-23.189-6.477-49.297-7.554-73-3l-2.053.39c-26.013 5.104-47.787 17.965-68.275 34.333-3.054 2.333-5.649 2.724-9.5 2.703-3.95-.774-6.554-3.497-9.172-6.426-1.642-3.283-1.642-6.465-1-10 3.19-6.203 8.648-10.7 14-15l2.77-2.273c30.44-24.276 64.782-35.948 103.605-35.977l2.438-.002c18.085.024 34.082 2.283 51.187 8.252l.297-1.906c1.013-5.8 2.32-11.182 5.703-16.094 3.737-2.492 5.573-2.458 10-2"/><path fill="#E01580" d="M776 486h1c.637 39.425-8.877 75.568-35 106l-2.531 2.992C733.847 601.415 727.794 606.847 721 612l-1.642 1.263C700.087 628 700.087 628 693 628c-3.173-24.55-3.173-24.55 1.786-31.504 4.684-4.107 10.164-6.735 15.792-9.323C725.95 579.727 739.13 562.604 749 549l1.296-1.768C763.71 528.73 771.286 508.238 776 486"/><path fill="#01A158" d="M246 485c1.451 2.698 2.377 5.14 3.008 8.133 9.24 41.493 38.186 78.242 73.742 100.93q1.773 1.113 3.547 2.222C329 598 329 598 330 599c.088 2.146.107 4.294.098 6.441l-.01 3.955-.026 4.167-.013 4.177q-.018 5.13-.049 10.26c-13.672-5.781-25.065-14.059-36-24l-2.578-2.324C266.22 577.735 253.52 545.554 247 512l-.578-2.727c-.608-4.72-.526-9.395-.484-14.148l.013-2.953q.018-3.585.049-7.172"/><path fill="#FBB605" d="M595.879 443.453c5.783 4.218 9.654 9.486 11.121 16.547 1.049 8.425-.092 14.992-5 22-4.883 5.446-11.462 8.534-18.664 9.273-8.653.297-14.885-1.326-21.441-7.14-6.454-6.84-7.44-13.704-7.27-22.91.766-6.585 3.956-11.172 8.75-15.598 9.597-7.366 21.87-8.388 32.504-2.172"/><path fill="#0086BE" d="m424.44 451.791 3.45-.058c5.219-.058 10.438-.108 15.657-.138q4.128-.027 8.255-.103c3.965-.072 7.93-.094 11.897-.113l3.716-.084c6.561.015 10.676.39 15.437 5.121 1.836 2.533 2.01 4.5 1.898 7.584l-.016 3c-.983 4.018-2.274 6.717-5.734 9-4.615.916-9.183.816-13.875.762q-2.056.002-4.113.01-4.302.005-8.604-.045c-3.669-.04-7.336-.03-11.005-.005-2.83.014-5.659.004-8.488-.014-2.008-.009-4.016.002-6.024.012-10.12-.157-10.12-.157-13.217-3.066-3.093-4.903-2.588-10.084-1.674-15.654 2.82-5.1 6.986-6.123 12.44-6.209"/><path fill="#8EE228" d="m259.813 372.813 3.525-.038c5.941-.01 11.067.158 16.662 2.225v1l-1.879-.219c-15.872-1.787-15.872-1.787-31.246 1.485-2.565 1.004-5.153 1.385-7.875 1.734v2c-2 1.625-2 1.625-4 3v-2h-2v2l-2.117-.234c-3.84.312-5.848 1.814-9.008 3.984l-3.133 2.11c-2.469 1.927-3.915 3.654-5.742 6.14l-3 1c-1.219 2.504-1.219 2.504-2 5h-3l-1 4-4-2c-.754 4.98-.754 4.98-1 10h-2v2l-1.937.5c-2.506 1.453-2.506 1.453-2.688 5.25l-.16 2.14c-.292 2.87-1.206 5.42-2.215 8.11h-4l-.375 1.938L185 437l-.406 2.09c-1.02 4.972-2.442 9.312-4.594 13.91l4 1h-3l-.875 1.813C179 458 179 458 177 461c-1.595-18.832 8.773-41.726 20.5-56.055 2.72-3.096 5.579-6.04 8.5-8.945l2.73-2.73c14.526-13.856 31.227-20.447 51.083-20.457"/><path fill="#3CD039" d="M210 588h4v3l2 2v7l8 2v5l2 2q.976 1.95 1.875 3.938c1.017 2.096 1.017 2.096 2.625 3.562 1.5 1.5 1.5 1.5 2.5 3.625.912 2.228.912 2.228 4 2.875l-.125 2.875c-.225 3.227-.225 3.227 2.125 5.125l3.063 1c2.937 1 2.937 1 3.937 3l2 1c.625 2.063.625 2.063 1 4h7v2h-2l1 3 1 3h6v2h2v7l8-1c.125 5.75.125 5.75-1 8h7v4l3 1h-2c2.88 4.577 2.88 4.577 7 8v2c-4.092-1.65-6.979-4.572-10.125-7.562l-3.488-3.27-1.737-1.631c-2.289-2.132-4.624-4.21-6.962-6.287-6.351-5.704-12.293-11.659-17.852-18.137-2.006-2.309-4.077-4.55-6.149-6.8-10.67-11.848-19.817-25.034-28.312-38.5l-2.04-3.231L208 591c1-2 1-2 2-3"/><path fill="#92DB2E" d="m304 230 2 2h-15v-2c-7.042.719-7.042.719-14 2v-2c-3.726 1.119-3.726 1.119-6 4v-2h-3l-1 2c-1.707 1-1.707 1-3.812 2l-2.083 1-2.105 1-2.102 1.074c-1.898.926-1.898.926-4.46 1.738C249.344 242.32 248.575 244 247 247l-2 2-2-1-3 3 1 3h-3v2l-3 3c-3.404 4.413-3.273 7.629-3 13l-1.937.313L228 273l-1 3-3 1c.254-12.7 8.212-23.502 17-32l2-1.957c16.6-15.362 39.5-20.134 61-13.043"/><path fill="#3BE351" d="M414 555c8.912 0 17.55 4.328 24 10.375 7.2 7.92 8.486 16.381 8.273 26.79-.571 8.022-3.39 13.973-9.359 19.37-10.52 8.051-22.285 7.744-34.914 7.465v-1l3.832-.402 4.98-.535 2.526-.264 2.432-.264 2.237-.238c2.196-.269 2.196-.269 4.993-1.297v-2l2.375-.437c2.59-.441 2.59-.441 4.625-1.563v-2l10-4-.125-3.125c.12-3.743.774-6.412 2.125-9.875l-2-1 .048-1.68c.062-2.524.101-5.047.14-7.57l.076-2.645c.09-5.03.09-5.03-1.612-9.675-2.12-1.835-3.922-1.999-6.652-2.43l-2-4c-2.025-.652-2.025-.652-4-1v-2l-2.3.105-3.012.082-2.989.106C415 560 415 560 413.145 558.488L412 557z"/><path fill="#54D748" d="M345 281h1c.736 20.335-1.974 35.747-15.687 51.75-10.867 11.375-25.253 18.945-41.18 19.348a521 521 0 0 1-4.008-.036l-2.086-.013q-2.52-.02-5.039-.049v-1l1.863-.078c5.13-.203 5.13-.203 9.2-2.985L290 346v3h4v-2h2v-2l3.375-.437c3.446-.347 3.446-.347 5.625-1.563a100 100 0 0 1 5 0l3-6 2 3 1.188-1.375C318 337 318 337 320.563 336.063c2.913-1.27 3.245-2.22 4.437-5.063l2-1a78 78 0 0 0 2-5h2c1.625-1.458 1.625-1.458 3-3l-1-2 4-2-.687-1.812L336 314a232 232 0 0 1 3-3c2.657-5.12 3.403-10.331 4-16l1-1c.235-2.183.414-4.372.563-6.562l.253-3.63z"/><path fill="#01E6DF" d="m426.517 321.88 2.23-.003q3.683 0 7.366.01l5.293-.001q7.174.001 14.348.013 7.5.007 15.002.008 14.2.005 28.4.021 16.167.015 32.336.022 33.254.016 66.508.05v1l-3.766.031q-17.904.15-35.807.308-9.197.083-18.392.158c-26.2.217-52.391.48-78.583 1.176l-4.95.128-2.378.064c-4.133.102-8.256.139-12.39.093l-2.615-.024q-2.463-.03-4.926-.086c-4.269-.051-7.301.468-11.193 2.152-3.313-.875-3.313-.875-6-2l-1 3-2-2c-2.46.2-2.46.2-5.125.875l-2.758.617L404 328c1.263-2.526 2.085-2.616 4.687-3.562.664-.25 1.328-.498 2.012-.754 5.261-1.564 10.353-1.808 15.818-1.804"/><path fill="#0599E8" d="M593.813 440.563C598.53 443.4 601.753 446.61 605 451l2 2h1v10l2 1-.437 2.047-.563 2.703-.562 2.672c-.55 2.8-.55 2.8-.438 6.578-.304 1.672-.631 3.34-1 5l-3-1-.312 1.813c-1.007 3.201-2.647 4.577-5.5 6.25-2.681 1.148-5.41 2.053-8.188 2.937v3h-2v-2l-3 2c-2.958-.302-5.334-.667-8-2l-1 2v-3l-4 3c-2-3.75-2-3.75-2-6l-3-1 2-1 2.262.918c5.889 2.327 13.17 1.927 19.113-.168 7.073-3.178 11.092-6.894 14.625-13.75 2.505-7.516 1.58-15.674-1.672-22.809-2.98-4.915-7.727-8.656-13.105-10.726-7.135-1.492-14.539-1.353-21.223 1.535-2.312-.375-2.312-.375-4-1l3-1 1.875-.754c8.392-3.193 15.773-3.827 23.938.317"/><path fill="#02EDE2" d="M378 417h79v1h-78v47l2 1c.414 1.934.414 1.934.625 4.438l.234 2.734c.134 2.69.099 5.324.016 8.015-.067 4.706.997 7.642 3.125 11.813l1 3h2l1.25 3.25c1.922 4.455 4.304 6.896 8.5 9.375L400 510v2l12 2 1 4c-9.721-.423-17.36-6.473-23.89-13.305-6.747-8.62-11.38-19.361-11.337-30.365v-3.935l.032-4.079.006-3.79c.01-4.655.038-9.31.064-13.964z"/><path fill="#2EE93D" d="M329 628h1v84c-10.138-5.632-10.138-5.632-13.473-8.094l-2.264-1.665-2.325-1.741-2.457-1.823C301.464 692.684 293.7 686.393 286 680c3.946-1.207 6.18-.613 10 1l1 2-1 2 1.75.688c2.25 1.312 2.25 1.312 4 3.875 3.227 3.495 5.588 3.204 10.25 3.437l-1 3c3.058.544 5.888 1 9 1v4l2 1-1 1 6 1c1.154-3.692 1.158-7.212 1.205-11.063l.03-2.13q.046-3.474.081-6.948l.063-4.825q.082-6.342.153-12.685.077-6.476.161-12.95.162-12.7.307-25.399"/><path fill="#5325BD" d="M330 599c5.096 1.699 8.516 3.31 13 6-2 1-2 1-6 1l-1-3-3-1-1 112c-3.707-.927-6.015-2.003-9.25-3.937l-2.703-1.59L318 707v-2c4.337 1.53 6.96 3.306 11 6z"/><path fill="#01EAE2" d="M391 337c0 2.789-.017 4.43-1 7l-5 5c-2.44 4.298-2.163 8.181-2 13h-1l-3 15h165v1H378c0-15.277.37-27.75 11.227-39.387z"/><path fill="#75DA27" d="M223 278h1l.168 1.924q.382 4.35.77 8.701l.263 3.027c.431 4.823.897 9.585 1.799 14.348l3 1-1 4 3 2c1.313 4.375 1.313 4.375 0 7l2.875-.125C238 320 238 320 240 322v6l3 1v3l5 1-1 6 4 2c-4.955 0-7.564-3.687-11-7l-2.055-1.977c-12.692-13.186-16.455-29.438-16.148-47.214C222 281 222 281 223 278"/><path fill="#7223B0" d="M644 354c2 2 2 2 2 5h2q.07 23.17.104 46.34.014 10.758.047 21.516.03 9.376.037 18.753.004 4.965.023 9.93c.015 3.694.017 7.389.016 11.083l.022 3.328-.008 3.051.005 2.648c-.265 2.533-.97 4.166-2.246 6.351l-.013-1.87q-.155-22.548-.326-45.097-.084-10.905-.158-21.808-.065-9.507-.14-19.013-.04-5.032-.072-10.063-.037-5.624-.086-11.247l-.017-3.352c-.05-5.285-.268-10.343-1.188-15.55"/><path fill="#6FDC20" d="M176 462h1a3523 3523 0 0 1 1.5 8.75l.434 2.5.41 2.422.38 2.222c.408 3.115.302 5.953-.224 9.043-.762 4.668-.485 8.466.5 13.063.344 2.332.68 4.665 1 7h3c.054 1.416.093 2.833.125 4.25l.07 2.39c-.212 2.567-.908 4.152-2.195 6.36l3 1-1 7 2 1h-2l1 7c-10.934-10.934-10.244-41.49-10.25-55.937.02-6.107.381-12.017 1.25-18.063"/><path fill="#33DA46" d="m330 597 2.063.938c4.257 1.54 8.42 2.062 12.937 2.062v2h6v3l1.977.367c3.93.754 7.671 1.511 11.46 2.82 2.64 1.114 2.64 1.114 5.563-.187 2-.04 4-.044 6 0l1 4h3v3l1.938-.562c.68-.145 1.36-.29 2.062-.438l1 1c2.522.4 5.03.75 7.563 1.063l2.154.275q2.64.335 5.283.662v1c-21.835 2.11-50.87-6.541-69-19z"/><path fill="#7DD726" d="m196 409 3 1 1 3-3 1v2l-1.937.5c-2.506 1.453-2.506 1.453-2.688 5.25l-.16 2.14c-.292 2.87-1.206 5.42-2.215 8.11h-4l-.375 1.938L185 437l-.406 2.09c-1.02 4.972-2.442 9.312-4.594 13.91l4 1h-3l-.875 1.813C179 458 179 458 177 461c-1.241-14.656 4.879-28.061 11-41l1.527-3.402C191 414 191 414 194 413c1.209-2 1.209-2 2-4"/><path fill="#01E5DC" d="m422.958 450.694 3.642-.049 3.923-.016 4.043-.027q4.234-.024 8.468-.028c3.607-.005 7.213-.043 10.82-.088 2.783-.03 5.566-.037 8.35-.038a494 494 0 0 0 5.918-.066c9.983.05 9.983.05 13.74 3.153L484 456l-1 2-2.181-2.463c-4.9-4.048-10.868-3.212-16.917-3.13h-3.84q-4.01.005-8.02.051c-3.419.04-6.837.044-10.255.037-3.274-.004-6.548.017-9.822.036h-3.71l-3.458.05-3.034.025c-3.232.46-5.136 1.485-7.763 3.394-1.406 2.812-1.246 5.24-1.312 8.375l-.114 3.46c.165 3.238.165 3.238 2.258 5.517 3.522 2.677 6.45 2.787 10.741 2.853l3.457.06 3.732.051 3.82.063q5.024.082 10.047.153 5.128.077 10.256.161 10.058.162 20.115.307v1q-11.409.106-22.819.155c-3.532.016-7.064.037-10.596.071-4.064.04-8.127.054-12.19.067l-3.833.047h-3.578l-3.143.02c-4.187-.53-6.835-2.21-9.591-5.36-1.887-4.53-2.003-9.135-2.25-14h2l.75-2.875C413 453 413 453 414.706 451.824c2.853-1.025 5.22-1.1 8.252-1.13"/><path fill="#73D540" d="M272 375c9.812-1.698 17.94 2.907 26 8 11.277 8.294 20.119 19.862 25 33-.316 2.414-.316 2.414-1 4l-.664-1.582C315.33 403.664 315.33 403.664 305 392c-3.12-.623-5.87-.51-9 0v-6l-2.082-.805-2.73-1.07-2.708-1.055C286 382 286 382 283 380h-2v-2l-9-2z"/><path fill="#4F22BE" d="M276 672c3.942 2.204 7.174 4.772 10.563 7.75 6.674 5.797 13.736 11.03 20.896 16.21l2.525 1.852 2.273 1.645C314 701 314 701 315 704c-3.793 1.264-5.34.401-9-1l-2-1c-.625-3.062-.625-3.062-1-6h-7v-7l-3.187-.687c-3.98-1.125-6.17-3.11-8.813-6.313v-2h-5l1-3-2-1.375-2-1.625z"/><path fill="#36CB46" d="m254 645 2 2c2.098.656 3.8 1 6 1v2h2v7l8-1c.125 5.75.125 5.75-1 8h7v4l3 1h-2c2.88 4.577 2.88 4.577 7 8v2c-4.304-1.711-7.351-4.83-10.687-7.937l-1.8-1.631c-4.389-4.06-4.389-4.06-5.513-7.432q-2.995-2.506-6-5v-2l-1.687-.687c-2.945-1.672-4.995-3.866-7.313-6.313z"/><path fill="#35DC54" d="M444 579c2.877 2.877 2.335 4.986 2.375 9-.049 8.662-1.667 15.412-7.625 21.875-10.637 9.619-23.223 9.424-36.75 9.125v-1l3.832-.402 4.98-.535 2.526-.264 2.432-.264 2.237-.238c2.196-.269 2.196-.269 4.993-1.297v-2l2.375-.437c2.59-.441 2.59-.441 4.625-1.563v-2l2.047-.523c3.8-1.197 6.957-2.24 9.508-5.407 3.5-7.589 2.81-15.915 2.445-24.07"/><path fill="#00B9EF" d="M592 417h54c.042 7.921.082 15.842.104 23.763q.014 5.535.047 11.069.032 5.34.039 10.679.01 3.007.037 6.016c0 6.777-.145 12.988-2.227 19.473l-3 1c.473-2.413.957-4.817 1.52-7.21 1.592-7.019 1.823-13.84 1.894-21.017l.059-3.723c.06-3.892.106-7.783.152-11.675q.057-3.978.117-7.957c.097-6.473.177-12.945.258-19.418h-53z"/><path fill="#42CA59" d="M337 510c2.874 2.772 5.372 5.656 7.813 8.813 6.77 8.476 14.167 14.547 22.957 20.832C371 542 371 542 373 544c-3.625.201-5.865-.142-9-2l1-2-1.812-.312C361 539 361 539 359.563 537.438L358 536l-2.5.125L353 536c-1.875-2.375-1.875-2.375-3-5l1-2c-3-1.333-3-1.333-6 0l.688-1.812L346 525c-1.417-1.583-1.417-1.583-3-3v-3h-7c-.125-6.75-.125-6.75 1-9"/><path fill="#4CC739" d="M185 537h3a101 101 0 0 1 3 6l-1 2h2v7l2 1v4l3-1v5l3 1-.062 2.313c-.067 2.789-.067 2.789 1.062 5.687h-4c-12-26.476-12-26.476-12-33"/><path fill="#01C0E9" d="M642 351c5.733 8.6 4 16.514 4 27h-79v-1q13.926-.231 27.852-.443 6.466-.097 12.934-.205 6.243-.104 12.488-.195 2.379-.036 4.758-.078 3.338-.056 6.677-.1l3.836-.061c3.257.077 6.263.456 9.455 1.082q-.212-2.688-.437-5.375l-.247-3.023c-.166-2.581-.166-2.581-1.316-4.602l-.437-3.312c-.495-3.24-1.217-5.728-2.563-8.688z"/><path fill="#85DA27" d="M223 278h1l.168 1.924q.382 4.35.77 8.701l.263 3.027c.431 4.823.897 9.585 1.799 14.348l3 1-1 4 3 2-1 8c-3.146-2.603-4.206-5.54-5.625-9.312-.425-1.11-.85-2.22-1.29-3.364-2.028-6.212-2.241-12.044-2.21-18.512l-.012-2.443.004-2.35.004-2.121C222 281 222 281 223 278"/><path fill="#079FEF" d="M593.813 440.563C598.53 443.4 601.753 446.61 605 451l2 2h1v10l2 1a441 441 0 0 1-.875 4.938l-.492 2.777L608 474l-2 1 .14-2.93c.244-8.781.303-16.9-5.718-23.906-7.21-6.657-13.54-7.496-23.117-7.465-3.193.29-5.392 1.042-8.305 2.301-2.312-.375-2.312-.375-4-1l3-1 1.875-.754c8.392-3.193 15.773-3.827 23.938.317"/><path fill="#00B3E4" d="m613 512 2 3 1-3 2 1v4c-8.054 3.355-15.47 3.392-24.098 3.293q-2.166-.009-4.333-.013c-3.773-.011-7.546-.04-11.319-.074-3.861-.03-7.722-.044-11.584-.06A5464 5464 0 0 1 544 520v-1l2.25-.025q10.507-.116 21.012-.263 5.4-.076 10.801-.134 5.214-.056 10.427-.136c1.97-.028 3.94-.045 5.909-.063l3.64-.06 3.202-.04c2.791-.282 4.313-1.002 6.759-2.279h4z"/><path fill="#4C1EC6" d="M230 624c3.707 2.777 6.522 5.671 9.375 9.313 3.13 3.907 6.328 7.515 9.922 10.992 7.676 7.64 7.676 7.64 9.703 11.695h-5l-.687-1.687c-1.994-3.513-4.674-6.494-8.313-8.313-2.098.4-2.098.4-4 1v-5h2a299 299 0 0 0-3.25-4.5l-1.828-2.531L236 633h-4l-.437-2.812c-.484-3.195-.484-3.195-1.563-6.188"/><path fill="#5515CA" d="M318 405c2.5 2.174 3.436 3.73 4 7h2c2.125 1.75 2.125 1.75 4 4v4h-2l.988 2.842c1.385 4.876 1.262 9.65 1.207 14.685l-.008 2.997c-.011 3.138-.036 6.276-.062 9.414q-.016 3.204-.027 6.408-.034 7.827-.098 15.654h-1l-.028-3.526c-.04-4.39-.107-8.778-.18-13.167a778 778 0 0 1-.063-5.658c-.117-14.659-1.382-27.66-7.995-41.012C318 407 318 407 318 405"/><path fill="#5FC931" d="m179 505 3 2h2c.054 1.416.093 2.833.125 4.25l.07 2.39c-.212 2.567-.908 4.152-2.195 6.36l3 1-1 7 2 1h-2l1 7c-3.077-3.077-3.59-6.862-4.687-11l-.693-2.599c-1.542-6.173-1.96-11.111-.62-17.401"/><path fill="#86D73A" d="m304 230 2 2h-15v-2c-7.042.719-7.042.719-14 2v-2l-6-1v-1c11.107-2.066 22.239-1.549 33 2"/><path fill="#3DCA65" d="M441 574c1.973.957 1.973.957 4 3 .382 3.04.513 5.658.438 8.688l.021 2.357c-.06 5.593-1.248 9.823-3.459 14.955l-2-1c1-7.429 1-7.429 2-11h-2a1890 1890 0 0 1-.062-7.937l-.026-2.288c-.009-1.925.036-3.85.088-5.775z"/><path fill="#F5D00D" d="M566 194c4.683.844 6.675 3.706 9.563 7.25l1.58 1.893a931 931 0 0 1 3.25 3.914c2.467 2.982 4.976 5.93 7.482 8.88l2.7 3.196c2.793 3.302 5.604 6.588 8.425 9.867l-1 2-1.61-1.46-2.14-1.915-2.11-1.898c-1.985-1.602-3.82-2.692-6.14-3.727v-2l-2-1a76 76 0 0 1-1-5l-1-3h-2a89 89 0 0 1-3.875-4.75c-2.035-2.646-3.992-5.12-6.383-7.453C568 197 568 197 568 195z"/><path fill="#433DBC" d="M753 371q5.899-.037 11.798-.055 2.993-.012 5.985-.033l3.799-.01 3.507-.016C781 371 781 371 784 372v2l3.688.563c9.027 2 17.615 7.123 24.312 13.437-3.737 0-4.885-1.086-7.937-3.187C788.224 374.537 771.41 372.612 753 372z"/><path fill="#4D31B2" d="m211 389 2 1-2.816 2.71C203.33 399.387 197.025 405.802 192 414c-1.05-1.875-1.05-1.875-2-4 .813-2 .813-2 2-4l.25-2.062c.75-1.938.75-1.938 3.688-3.688C199 399 199 399 201 399l1-3h3l-1-3 2.375-.875c2.722-.974 2.722-.974 4.625-3.125"/><path fill="#6CEC33" d="M287 378c14.098 3.339 23.747 15.892 31.02 27.535 5.163 9.034 5.163 9.034 4.668 12.902L322 420l-.664-1.582A297 297 0 0 0 318 411l-1.215-2.625c-6.283-12.53-15.235-20.7-27.11-27.73L287 379z"/><path fill="#4926BC" d="M178 517c3.42 3.42 3.95 8.29 5.188 12.875.285 1.007.57 2.014.865 3.05l.802 2.942.74 2.691c.42 2.528.223 4.04-.595 6.442-3-2-3-2-3.512-4.164l-.175-2.461-.2-2.477L181 534h-2c-2.125-5.625-2.125-5.625-1-9h-2v-2h2z"/><path fill="#3A1FC2" d="M400 723c3.837 3.62 6.827 7.37 9.75 11.75 2.407 3.804 2.407 3.804 5.25 7.25 2 .2 2 .2 4.313.188l2.363.042c2.527-.25 4.141-.966 6.324-2.23l-1 4c-2.29.389-4.582.76-6.875 1.125l-3.867.633L413 746l-2-2h-2c-1-4.75-1-4.75-1-7a186 186 0 0 0-4-6c-4-5.778-4-5.778-4-8"/><path fill="#84D02F" d="m196 409 3 1 1 3-3 1v2l-1.937.5c-2.506 1.453-2.506 1.453-2.688 5.25l-.16 2.14c-.292 2.87-1.206 5.42-2.215 8.11l-4-1c3.5-14.5 3.5-14.5 9-20z"/><path fill="#079F4F" d="M246 485c1.535 3.07 2.417 5.214 3.184 8.45.205.848.41 1.697.623 2.571l.63 2.666c1.558 6.56 3.32 12.951 5.563 19.313l-2 1a696 696 0 0 1-2-5.25l-1.125-2.953C250 508 250 508 250 504h-3l-1 2z"/><path fill="#5124BD" d="M344 606c3.472.634 6.739 1.5 10.082 2.629l2.822.947 2.909.986 2.966.999q3.612 1.215 7.221 2.439v1l-2.812-.062c-3.21-.096-3.21-.096-6.188 1.062l-3-2-1 2-3-1v-2l-2.187-.687c-3.345-1.561-5.329-3.616-7.813-6.313"/><path fill="#F6BA0A" d="m377 258 1 2h3v3l-1 1 3 1 1 6 8 1 1-2 2 1v-2l4 1c-3.896 3.117-6.744 4.772-11.969 4.531-3.814-.997-6.454-3.647-9.031-6.531-1.607-3.215-1.057-6.436-1-10"/><path fill="#491EC2" d="M196 570c4 3.65 6.176 8.365 8.75 13.063l1.574 2.798 1.473 2.674 1.354 2.45L210 593l-1 2-1-3-8-1 .188-3.437c.014-4.191-.98-7.581-2.434-11.485-.729-2.009-1.271-3.998-1.754-6.078"/><path fill="#523BBB" d="m791 328 1 2c-11.191 12.997-11.191 12.997-18 15a176 176 0 0 0-6.266 3.293L766 349l-2-1 2.93-1.617c7.782-4.414 14.117-8.796 20.215-15.414C789 329 789 329 791 328"/><path fill="#431DC8" d="m190 414 1 2a115 115 0 0 1-3.187 6.938c-3.017 6.231-5.613 12.49-7.813 19.062-1.206-2.332-2.165-4.496-3-7h2v-2l-2-1c3-2 3-2 6-2l.375-2.187c.615-2.77 1.51-5.21 2.625-7.813h-2l1-4 3 1z"/><path fill="#60D052" d="M335 257c3.138 2.632 4.42 5.736 6.063 9.438 1.939 4.42 1.939 4.42 4.144 8.707 1.42 3.32.374 6.369-.207 9.855-2.024-3.035-2.321-4.194-2.625-7.687l-.227-2.45L342 273h-2v-2l-4 1 .559-2.168c.477-3.06.184-5.14-.497-8.144l-.59-2.676zm3 8 1 2Z"/><path fill="#491BCA" d="m232 325 1.938 1.938 1.41 1.386a106 106 0 0 1 3.46 3.696c6.481 6.995 13.944 11.383 22.192 15.98-3.188 2.125-5.265 2.502-9 3l1-5-2.012-1.355C246.25 341.4 241.861 338.29 238 334l-1.629-1.793C232 327.288 232 327.288 232 325"/><path fill="#4039B8" d="m685 259 1 2a99 99 0 0 1-2.312 6.063c-3.796 9.146-4.991 17.143-4.813 27l.027 2.912q.036 3.512.098 7.025c-2.335-4.159-2.304-7.952-2.25-12.625l.014-2.447c.077-5.083.512-9.85 1.724-14.803.805-3.343 1.133-6.711 1.512-10.125h2v-2h2z"/><path fill="#EAC216" d="m381 678 3 1-3 2-1 3 2 1h-2l1.438 1.063C383 688 383 688 383.375 691.313c.623 3.675.894 4.325 3.25 6.875L389 701c-.352 2.176-.352 2.176-1 4a508 508 0 0 1-5.562-8.062l-1.616-2.28c-2.594-3.866-3.835-5.827-3.76-10.596.904-2.953 1.487-4.25 3.938-6.062"/><path fill="#56E130" d="m296 345 1 2 4-1v2l10-3c-2.817 2.817-3.745 3.504-7.312 4.625l-2.239.727c-5.463 1.446-10.694 1.781-16.324 1.71l-2.086-.013q-2.52-.02-5.039-.049v-1l1.863-.078c5.13-.203 5.13-.203 9.2-2.985L290 346v3h4v-2h2z"/><path fill="#05DBDB" d="M391 337c0 2.789-.017 4.43-1 7l-5 5c-2.44 4.298-2.163 8.181-2 13h-1l-2 9c-2.436-7.307-1.594-13.43 1.668-20.294 4.986-9.88 4.986-9.88 9.332-13.706"/><path fill="#4712CC" d="M225 266c1.182 3.545.716 4.449-.375 7.938-2.392 8.858-2.364 17.942-2.625 27.062h-1c-.763-3.395-1.128-6.535-1.133-10.012l-.004-2.795.012-2.88-.012-2.917.004-2.783.004-2.538C220 275 220 275 221 273h2z"/><path fill="#49D05C" d="M300 610c4.008 1.803 7.515 4.338 11.125 6.813 5.77 3.91 11.533 7.26 17.875 10.187v10h-1v-8l-6-2v-2l-3.25-.25c-4.172-.834-5.026-1.662-7.75-4.75l-2.437-1.437c-3.555-2.168-6.68-4.798-8.563-8.563"/><path fill="#0CA8E1" d="M555 455c1.114 3.341.998 5.68.875 9.188-.051 9.261 2.555 14.586 8.125 21.812-2.51-1.038-3.832-1.766-5.437-4-1.917-2.453-3.644-3.053-6.563-4l1.066-2.059c1.497-4.714.089-8.903-.851-13.664C552 459 552 459 553.44 456.567z"/><path fill="#4E22C0" d="M259 656q2.462 2.102 4.918 4.21 2.125 1.826 4.258 3.642l2.137 1.836 1.988 1.699C274 669 274 669 276 672c-3.112-1.498-6.053-3.2-9-5v2l-3-1v-3l-4-1c-1-5.75-1-5.75-1-8"/><path fill="#58DB24" d="M185 537h3a101 101 0 0 1 3 6l-1 2h2l-.062 3.625c-.007 3.555.363 6.88 1.062 10.375-2.878-3.376-4.219-6.836-5.687-11l-1.325-3.687C185 541 185 541 185 537"/><path fill="#5323C0" d="m348 520 2.875 2.75c4.257 3.682 8.883 5.381 14.125 7.25l2 1c.625 2.563.625 2.563 1 5-5.86-1.247-9.11-3.297-13.375-7.437l-1.613-1.487c-2.461-2.32-3.927-3.822-5.012-7.076"/><path fill="#50C759" d="M325 430v44c-2.193-4.385-2.234-6.557-2.195-11.39l.008-2.136c.011-2.241.037-4.483.062-6.724q.016-2.285.027-4.57.035-5.59.098-11.18h-2c-.187-2.875-.187-2.875 0-6 3-2 3-2 4-2"/><path fill="#5025BF" d="M277 373c5.93-.379 10.472.894 16 3v2l4-1v4c1.917 2.25 1.917 2.25 4 4-4.781-1.811-9.283-4.112-13.828-6.434-3.338-1.69-6.672-3.24-10.172-4.566z"/><path fill="#66DB2A" d="m251 342 3.563.938c3.788.955 7.567 1.52 11.437 2.062l2 1 1-2 3 2-1 4c-7.658-.295-13.343-3.372-20-7z"/><path fill="#4A1DC6" d="M210 595c2.963 2.776 5.095 5.528 7.188 9 3.909 6.298 8.294 12.13 12.812 18l-2 2v-2l-3 1-.621-2.43c-1.827-4.73-4.552-8.551-7.441-12.695a840 840 0 0 1-3.286-4.758l-1.469-2.106c-1.188-2.019-1.744-3.722-2.183-6.011"/><path fill="#531EC4" d="M332 494c2.765 3.457 4.85 7.143 7 11l4-1 .148 2.047.227 2.703c.07.882.14 1.763.21 2.672.414 2.569 1.127 4.336 2.415 6.578-3.96-3.655-6.64-7.303-9.25-12l-1.062-1.828c-1.9-3.362-3.193-6.332-3.688-10.172"/><path fill="#05A1D7" d="m570 491 2.781.254c6.604.548 12.686.922 19.219-.254v2h-2v3h-2v-2l-3 2c-2.958-.302-5.334-.667-8-2l-1 2v-3l-4 3c-2-3.875-2-3.875-2-5"/><path fill="#F3AA11" d="M537 258c2 1 2 1 2.875 3.5.854 2.683.854 2.683 3.25 3.313L545 265v2l7-1v2c-4.05 1.35-7.77 1.68-12 1-2.939-2.509-3.877-3.916-4.312-7.75C536 259 536 259 537 258"/><path fill="#4ED155" d="M273 580c3.668 3.562 6.997 7.304 10.25 11.25 4.632 5.556 9.516 10.749 14.75 15.75-3 0-3 0-4.562-1.206l-1.653-1.68-1.83-1.846-1.892-1.956c-.932-.938-.932-.938-1.881-1.896C277 589.078 277 589.078 277 586l-3-1z"/><path fill="#5018C5" d="M262 349c6.49.89 6.49.89 9.407 1.515 2.66.498 5.191.69 7.894.801l2.959.127 3.053.12 3.11.13q3.788.159 7.577.307v1c-10.906 2.497-22.103.688-33-1z"/><path fill="#37C757" d="M354 607c5.066-.172 8.31-.01 13 2l3-1c2-.04 4-.044 6 0l-2 1v4c-2.75.688-2.75.688-6 1a249 249 0 0 1-4-3c-2.57-.987-2.57-.987-5.25-1.687l-2.703-.762L354 608z"/><path fill="#F8B509" d="m610 666 3 1-3.125 2c-3.72 2.602-5.931 5.602-8.32 9.426C600 680 600 680 597.496 680.168L595 680c-2.738.927-2.738.927-5 2 3.76-3.99 7.75-7.132 12.25-10.25 4.054-2.662 4.054-2.662 7.75-5.75"/><path fill="#5328B9" d="m317 344 2 1c-2.427 3.64-3.963 3.712-8 5l-1 2h-13c4.624-4.624 12.684-6.169 19-7z"/><path fill="#8BDF1F" d="m190 417 1 2-1.312 2.438c-1.915 4.04-2.522 7.679-3.16 12.074C186 436 186 436 184 439h-2l-1 2c.592-8.682 4.426-16.698 9-24"/><path fill="#F4B90C" d="M403 673v2l-3.187.813c-3.757.965-3.757.965-6.375 2.937-2.438 1.25-2.438 1.25-5.75.438L385 678c2.47-2.47 4.575-3.07 7.875-4.187l3.18-1.106c2.88-.692 4.223-.74 6.945.293"/><path fill="#E9B116" d="M606 460h1c.658 8.513-.031 14.883-5 22-2.812 2.625-2.812 2.625-5 4l-2-2c2-2 2-2 4-2.25l2-.75c1.275-2.825 1.275-2.825 2-6l.625-2.125c.506-2.21.506-2.21.375-5.875h2z"/><path fill="#069A5F" d="M301 609c3.312 1.035 5.75 2.498 8.438 4.625 4.357 3.402 9.056 6.026 13.902 8.659 4.558 2.512 4.558 2.512 5.66 4.716-4.973-1.44-9.055-3.576-13.437-6.25l-1.999-1.209c-4.58-2.819-8.702-5.774-12.564-9.541z"/><path fill="#541DC2" d="M328 475c3.479 4.386 4.124 7.424 4 13l4 2-1 3h-4c-2.48-6.243-3.32-11.283-3-18"/><path fill="#76E438" d="M307 232c7.723 2.032 15.589 6.183 20 13-2.231-1.036-4.006-2.006-5.875-3.625-2.132-1.652-2.132-1.652-5.187-1.375-2.938 0-2.938 0-4.813-1.312C310 237 310 237 310 234l-3-1z"/><path fill="#492FB2" d="M243 641q3.505 2.995 7 6c.73.623 1.46 1.245 2.21 1.887l2.165 1.863 2.023 1.734C258 654 258 654 259 656h-5l-.687-1.687c-1.994-3.513-4.674-6.494-8.313-8.313-2.098.4-2.098.4-4 1v-5z"/><path fill="#F1BF10" d="m390 705 2.313 2.375c2.596 2.698 2.596 2.698 5.687 4.625v2h2l-1 4 2 1 2 3-1 3q-4.02-5.486-8-11l-1.422-1.96c-1.833-2.617-2.578-3.758-2.578-7.04"/><path fill="#D71079" d="M744 556c0 3.925-1.177 4.656-3.812 7.5l-2.454 2.648c-4.502 4.695-9.096 9.292-13.734 13.852l-2-1 1.374-1.358q3.129-3.099 6.251-6.205l2.16-2.134c4.294-4.275 8.337-8.648 12.215-13.303"/><path fill="#60E51A" d="M179 514c2 2 2 2 2.438 4.063L182 520l3 1-1 7 2 1h-2l1 7c-2.703-2.703-3.2-5.715-4.125-9.312l-.55-2.014c-.957-3.635-1.543-6.915-1.325-10.674"/><path fill="#9FE323" d="m245 241 2 1-1.277 1.426-1.66 1.887-1.653 1.863c-1.61 1.876-1.61 1.876-2.41 4.824l1 2-2.312.313c-2.859.73-3.845 1.457-5.688 3.687l-2-1c4.155-5.917 8.773-11.011 14-16"/><path fill="#03BBDC" d="M606 322c-3.293 1.889-6.325 2.542-10.062 3.125l-3.16.508c-4.146.548-7.684.095-11.778-.633v-2q4-.255 8-.5l2.254-.145c4.926-.3 9.811-.4 14.746-.355"/><path fill="#92D237" d="m255 236 2 1c-3.559 3.813-3.559 3.813-6.062 4.875-2.896 1.682-3.636 4.131-4.938 7.125l-5-1c4.858-7.447 4.858-7.447 9-9l2.625-1.687z"/><path fill="#F8C308" d="M403 725h2c1.29 1.68 1.29 1.68 2.625 3.875l1.352 2.18C410 733 410 733 410 735l5 1v4l7 2v1c-2.91.606-4.217.86-7 0-3.136-3.002-5.545-6.432-8-10l-1.395-1.93C403 727.37 403 727.37 403 725"/><path fill="#4820C3" d="M186 546c3.42 2.73 4.69 6.488 6.25 10.438l.852 2.025c1.1 2.75 1.946 4.963 1.695 7.947C194 568 194 568 192 569l-.297-1.8c-1.068-5.924-2.716-11.342-4.898-16.95C186 548 186 548 186 546"/><path fill="#0590DF" d="m613 512 2 3 1-3 2 1v4c-9.41 3.629-9.41 3.629-14 2l1-2c2.322-.407 4.657-.744 7-1z"/><path fill="#099BF0" d="m567 488 2.75 1c8.37 2.372 16.991 1.202 25.25-1-.562 1.941-.562 1.941-2 4-8.15 1.864-17.414 1.827-25-2z"/><path fill="#F98A0E" d="m556 720 2 2c-.375 2.125-.375 2.125-1 4l-2.992.84-3.883 1.097-1.973.553c-3.66 1.029-3.66 1.029-7.152 2.51a76 76 0 0 1-5-1l1-2c2.49-.614 4.917-1.123 7.438-1.562 4.92-.765 4.92-.765 9.562-2.438v-3z"/><path fill="#4A2FB2" d="M184 544h3l.25 2.813c.732 5.312 2.817 10.215 4.75 15.187h-2v-2l-4-2v-3l-1-1.75c-1.386-3.119-1.13-5.88-1-9.25"/><path fill="#3E21CB" d="M412 261c-1.098 2.993-1.677 3.846-4.625 5.25L405 267v3l-8 2c3.442-4.876 8.682-11 15-11"/><path fill="#451DCC" d="M559 192c1.416-.054 2.833-.093 4.25-.125l2.39-.07c2.587.214 4.11.949 6.36 2.195l2.188.438L576 195l1 3h-3l3 3-1 2-1.46-1.715-1.915-2.222-1.898-2.215c-2.008-2.15-2.951-2.813-5.891-2.946l-2.461.036-2.477.027L558 194z"/><path fill="#FA850F" d="m516 729 5 2c-3.446 2.298-4.71 2.236-8.762 2.195l-3.388-.02-3.538-.05-3.572-.027q-4.37-.036-8.74-.098l1-2 1.804.032c2.69.041 5.38.067 8.071.093l2.84.05 2.715.02 2.507.032c2.287-.034 2.287-.034 4.063-2.227"/><path fill="#4119C9" d="M178 442h1c-.75 7.377-1.834 14.678-3 22l-3-2 1-8h2c.09-.922.09-.922.184-1.863l.254-2.45c.08-.8.162-1.6.246-2.425C177 445 177 445 178 442"/><path fill="#47D62D" d="M198 571h4q.971 2.874 1.938 5.75l1.09 3.234c.752 2.333 1.422 4.63 1.972 7.016-2.816-2.495-4.41-5.266-6.187-8.562l-1.606-2.942C198 573 198 573 198 571"/><path fill="#67C935" d="M177 469h1q.506 2.625 1 5.25l.563 2.953c.96 6.143-.327 11.793-1.563 17.797h-1z"/><path fill="#03B0E3" d="m563 440 2 4a268 268 0 0 1-2.75 3.938l-1.547 2.214c-1.895 2.056-2.977 2.475-5.703 2.848 1-2 1-2 2.438-3.75 1.737-2.277 1.737-2.277 2.625-5.437L561 441z"/><path fill="#F3C80C" d="M599 231c9.735 7.743 9.735 7.743 10.375 13.188C609 247 609 247 607 249l-1-8-1.875-.125L602 240c-1.187-2.875-1.187-2.875-2-6z"/><path fill="#5028BB" d="m550 205 2 3-1 5-10-3 1-2h8z"/><path fill="#46C73C" d="M203 572c3.06 2.755 4.899 4.996 6 9-.375 2.313-.375 2.313-1 4h-2c-.7-1.6-1.384-3.205-2.062-4.812l-1.16-2.708C202 575 202 575 203 572"/><path fill="#67D049" d="M293 383c4.593 1.486 7.436 3.85 11 7l-1 2h-7l.188-2.812c.12-3.172.12-3.172-1.688-5.063z"/><path fill="#5DCF39" d="M277 346h2l2 5c-4.316.762-7.744 1.16-12 0v-3l8 1z"/><path fill="#75CD32" d="m231 315 2 3-1 2 2.875-.125C238 320 238 320 240 322l-2 2v2c-1.75-.062-1.75-.062-4-1-1.767-2.254-2.77-4.358-4-7z"/><path fill="#F4A80F" d="m445 721 7 1 1 3c2 1.209 2 1.209 4 2-3.479 1.16-4.342.775-7.687-.437l-2.45-.872L445 725z"/><path fill="#451ACA" d="m234 247 3 1c-1.764 3.751-3.939 7.235-6.125 10.75l-1.129 1.824Q228.375 262.788 227 265l-1-2c.96-1.953.96-1.953 2.375-4.25 2.132-3.642 3.098-6.531 3.625-10.75z"/><path fill="#F9C408" d="m409 230 1 2h-2l-.125 1.875L407 236c-3.062 1.25-3.062 1.25-6 2v2l-7 2c4.41-4.851 9.58-8.348 15-12"/><path fill="#3D23C2" d="M384 701c4.322 3.34 7.175 6.328 10 11l-1 2-4-5-3 2c-1.316-3.62-2-6.096-2-10"/><path fill="#F71685" d="M829 562h2c-1.392 4.627-3.295 8.647-5.625 12.875l-1.914 3.492L822 581c-.64-1.762-.64-1.762-1-4 .89-1.895.89-1.895 2.25-3.812 2.439-3.621 4.145-7.134 5.75-11.188"/><path fill="#4323C8" d="m211 389 2 1-14 14c0-3.615.892-5.112 3-8h3l-1-3 2.375-.875c2.722-.974 2.722-.974 4.625-3.125"/><path fill="#791AAC" d="M644 354c2 2 2 2 2 5h2v20h-1l-.402-3.691-.535-4.872-.264-2.423A370 370 0 0 0 644 354"/><path fill="#4D2FB2" d="M332 694h3v13h-3z"/><path fill="#4931AF" d="M193 566h3l2 10-6-1z"/><path fill="#4624BD" d="M182 430c1.124 3.304.896 5.05-.437 8.25l-.872 2.14L180 442c-1.206-2.332-2.165-4.496-3-7h2v-2l-2-1c3-2 3-2 5-2"/><path fill="#5AE240" d="M314 401c3.188 2.894 5.033 5.586 6.813 9.5l1.332 2.844c.898 2.788.889 3.967-.145 6.656l-.734-1.687c-1.745-3.972-3.533-7.892-5.516-11.75C314 403 314 403 314 401"/><path fill="#F8C10A" d="M584 217c2.92 1.31 4.756 2.756 7 5l3 1c1.845 1.876 3.368 3.927 5 6l-1 2-1.61-1.46-2.14-1.915-2.11-1.898c-1.985-1.602-3.82-2.692-6.14-3.727v-2l-2-1z"/><path fill="#4A22C1" d="M225 266c1.217 3.65.668 5.36-.25 9.063l-.766 3.222C223 281 223 281 220 283c-.125-7.75-.125-7.75 1-10h2z"/><path fill="#FABF06" d="M563.563 192.938 567 193l1 3-2.437.375L563 197l-1 2-4-1c1.126-4.985 1.126-4.985 5.563-5.062"/><path fill="#37C052" d="M271 664h7v4l3 1h-2l1 3c-4.274-1.583-6.265-4.506-9-8"/><path fill="#F0AB11" d="M447 660c2.563 1.875 2.563 1.875 4 4v2h-2l-2-3a98 98 0 0 0-7 0c-1.676-.285-3.348-.6-5-1 4.002-2.668 7.294-2.714 12-2"/><path fill="#433DBD" d="M799 617c1 2 1 2 .063 5.125L798 625h-3c-1.45 1.305-1.45 1.305-2.687 3L790 631c0-4.176 1.834-5.54 4.5-8.687l2.531-3.012z"/><path fill="#541BC2" d="M375 616q2.595.214 5.188.438l2.917.246c2.681.293 5.261.743 7.895 1.316v1c-1.958.195-3.916.38-5.875.563l-3.305.316C379 620 379 620 377 619l-1 2z"/><path fill="#039CE8" d="m644 474 2 1a979 979 0 0 1-.437 4.25l-.247 2.39c-.588 4.39-.588 4.39-1.316 6.36l-3 1z"/><path fill="#5426C3" d="M605 236h2v2h3v2h3v5h-2l-2 2-.875-3.25c-.853-2.844-1.689-5.185-3.125-7.75"/><path fill="#F7A60C" d="m476 728 1 3 2 1c-4.833.083-9.237-.047-14-1l1-2c2.285-.414 2.285-.414 5.063-.625l2.785-.227z"/><path fill="#2D15D0" d="M435 721c10.558 3.075 10.558 3.075 15 5-3.547 1.251-5.723.723-9.25-.437l-2.703-.872L436 724l-3 4c.875-5.875.875-5.875 2-7"/><path fill="#33C256" d="M328 700h1v11c-3.267-1.633-6.347-3.694-8-7h6z"/><path fill="#39C347" d="M240 632c2.438.375 2.438.375 5 1l1 2 2 1c.625 2.563.625 2.563 1 5-2.867-1.285-4.976-2.571-7-5v-2h-2z"/><path fill="#2DE54C" d="M421 617c-3.792 2.528-6.809 2.224-11.187 2.125l-2.272-.027c-1.847-.024-3.694-.06-5.541-.098v-1c2.227-.365 4.457-.716 6.688-1.062l3.761-.598c3.212-.308 5.469-.183 8.551.66"/><path fill="#97E61C" d="M202 400c0 3.694-1.282 5.778-3 9h-3l-.875 2.438C194 414 194 414 192 415c1.342-3.804 3.04-6.611 5.563-9.75l1.878-2.36C201 401 201 401 202 400"/><path fill="#52E13A" d="M328 332v3c-2.082 2.078-2.082 2.078-4.812 4.25l-2.708 2.203L318 343l-3-1 2.5-1.312L320 339v-3l2.875-.875c3.177-.893 3.177-.893 5.125-3.125"/><path fill="#463AB9" d="M687 325c5.45 2.643 10.281 7.562 13 13-3.132-1.422-5.581-3.136-8.187-5.375l-2.106-1.773c-1.831-1.987-2.318-3.214-2.707-5.852"/><path fill="#F0A115" d="m427 734 3 1-3 6c-3 0-3 0-6-2l1.875-.812c2.425-1.144 2.425-1.144 4.125-4.188"/><path fill="#ECB813" d="m381 678 3 1-3 2-1 3 2 1h-2l1 4-4-1c.615-6.523.615-6.523 2.563-8.937z"/><path fill="#32D54E" d="M374 609h2l1 3h3l-1 4-9-2 2-3h2z"/><path fill="#EE2DA4" d="M578 579c1.582 1.113 1.582 1.113 3 3-.363 2.918-.363 2.918-1.312 6.188l-.926 3.292L578 594h-1q-.04-2.906-.062-5.812l-.036-3.27C577 582 577 582 578 579"/><path fill="#40CA65" d="M419 558c7.571.138 11.423 3.056 17 8l-3 2c-2-3-2-3-3-5-2.025-.652-2.025-.652-4-1v-2l-7-1z"/><path fill="#0AB3E7" d="M642 351c3.102 4.653 4.338 9.415 4 15l-3-1 .188-2.562c-.228-4.174-1.39-6.692-3.188-10.438z"/><path fill="#4E27BD" d="m253 344 8 4c-3.188 2.125-5.265 2.502-9 3z"/><path fill="#02EDE3" d="M391 337c0 4.477-.243 6.183-3.375 9.563L385 349l-1.812 1.813L382 352c1.468-5.872 4.734-10.734 9-15"/><path fill="#F3A511" d="M529 234c6.625-.25 6.625-.25 10 2v3l-11-2z"/><path fill="#FBB406" d="M385 696h4c1.096 2.046 1.967 3.858 2.5 6.125.393 2.102.393 2.102 2.5 3.875l-3 1c-2-1-2-1-3-3.812L387 700a87 87 0 0 0-2-4"/><path fill="#089DD8" d="m602 483 2 2c-2.476 2.653-4.59 4.68-8 6h-3c.125-1.875.125-1.875 1-4 2.938-1.125 2.938-1.125 6-2z"/><path fill="#97E221" d="m224 382 2 1-3 2 1 2c-3.317 1.422-6.442 2.39-10 3 3.086-3.263 5.935-6.022 10-8"/><path fill="#67CC36" d="M247 335c2.875.625 2.875.625 6 2 1.375 3.125 1.375 3.125 2 6-2.972-1.125-5.334-2.223-8-4z"/><path fill="#4CDA28" d="M193 559c3 3.75 3 3.75 3 6l4-1 1 6h-4a418 418 0 0 1-2-3.812l-1.125-2.145C193 562 193 562 193 559"/><path fill="#06AAF1" d="M555 455c1.231 3.693.872 6.88.563 10.688l-.159 2.126q-.196 2.594-.404 5.186h-1a405 405 0 0 1-1.187-6.75l-.668-3.797C552 459 552 459 553.449 456.547z"/><path fill="#4219CB" d="m226 379 2 1-12 8-2-1 4-2-1-4h6z"/><path fill="#4B2FB0" d="M269 667q1.758 1.176 3.5 2.375l1.969 1.336L276 672v2l2 1-1 2-4-1v-4l-3-1c-.687-2.062-.687-2.062-1-4"/><path fill="#3FCA60" d="m409 555 2 2c-2.332 1.206-4.496 2.165-7 3l-1-3-2-2c3.287-.8 4.71-1.097 8 0"/><path fill="#0797E4" d="m640 491 2 2a396 396 0 0 1-2.375 4c-.44.743-.882 1.485-1.336 2.25L637 501h-2c.432-4.752 1.328-6.92 5-10"/><path fill="#391FC5" d="M432 729c1.434 2.869.542 4.87 0 8-.037 2-.048 4 0 6l-4-3q.713-2.47 1.438-4.937l.808-2.778C431 730 431 730 432 729"/><path fill="#30D842" d="m286 679 6 1v2h2l2 5c-3.948-1.67-6.818-4.18-10-7z"/><path fill="#6C34B3" d="M831 565c1.286 3.86.421 5.467-1.031 9.125-1.224 2.369-2.646 3.593-4.969 4.875 1.492-4.972 3.605-9.418 6-14"/><path fill="#52D429" d="M190 545h2l-.062 3.625c-.007 3.555.363 6.88 1.062 10.375-3.656-3.656-3.96-8.033-4-13z"/><path fill="#049AE5" d="m631 503 4 1a245 245 0 0 1-3.25 3.5l-1.828 1.969C628 511 628 511 624 511v-2c4.385-3 4.385-3 7-3z"/><path fill="#F82BA0" d="m697 444 1 2h2l-2 16h-1z"/><path fill="#403EBF" d="M812 598c1 2 1 2-.125 5.438-1.564 3.49-3.355 4.945-6.875 6.562 1.557-4.671 4.084-8.087 7-12"/><path fill="#46CB57" d="M329 494c2.96 3.364 3.923 6.692 5 11l-5-2c-1.125-6.75-1.125-6.75 0-9"/><path fill="#553AAD" d="M329 464h1v15l-3 1v-8h2z"/><path fill="#4439B7" d="M700 416c1.21 3.632.628 5.065-.437 8.688l-.872 3.011L698 430h-1q-.04-2.437-.062-4.875l-.036-2.742C697 420 697 420 698 418h2z"/><path fill="#63D04C" d="M306 394c3.83 1.453 5.12 3.429 7 7l-9-3c1-3 1-3 2-4"/><path fill="#F29313" d="M547 700c-.625 1.938-.625 1.938-2 4-3.125.75-3.125.75-6 1v-4c2.763-.597 5.16-1 8-1"/><path fill="#40C75E" d="M391 550c3.875 1.75 3.875 1.75 5 4l-1 3-3-1v-3l-4-1z"/><path fill="#3ECB5C" d="m379 545 3 2c-.75 1.938-.75 1.938-2 4-2.125.75-2.125.75-4 1v-6z"/><path fill="#F5C10B" d="M573 441c-1.875 4.75-1.875 4.75-3 7h-2v-2l-3-1c5.75-4 5.75-4 8-4"/><path fill="#89D035" d="M219 388v2a249 249 0 0 1-4 3l-2 3-4-1a640 640 0 0 1 3.875-3.5l2.18-1.969C217 388 217 388 219 388"/><path fill="#34C354" d="m294 680 3 3-1 2 1.875.813C300 687 300 687 302 690c-2.95-1.37-5.565-2.826-8-5v-3l-2-1z"/><path fill="#5539BA" d="M836 550c1.381 4.144.69 7.299-.937 11.313C834 563 834 563 832 564q.428-2.377.875-4.75l.492-2.672c.601-2.447 1.413-4.384 2.633-6.578"/><path fill="#591CC2" d="M420 555c4.088-.24 7.247.332 11 2 1.375 2.125 1.375 2.125 2 4-4.472-1.418-8.711-3.113-13-5z"/><path fill="#F31987" d="M835 548c1.236 3.708.568 4.675-.937 8.188l-1.153 2.73L832 561l-2-2 1-2.875c1.102-2.896 1.102-2.896 1-5.125 1.5-1.625 1.5-1.625 3-3"/><path fill="#62DC23" d="M179 514c2 2 2 2 2.438 4.063L182 520l3 1-2 4-1-2h-2z"/><path fill="#58D054" d="m320 417 4 2v10c-2-1-2-1-3.125-4.312C320 421 320 421 320 417"/><path fill="#89D036" d="M225 381c5.75-.125 5.75-.125 8 1v2l-2.312-.125c-2.915-.096-2.915-.096-5.688 2.125l-3-1 1.5-1.437c1.615-1.322 1.615-1.322 1.5-2.563"/><path fill="#F8BC0C" d="m551 210 2 1-1 5-5-2-1 2v-3h-2v-2l7 2z"/><path fill="#473EBF" d="M848 498h1l1 11h-2l-1 3a673 673 0 0 1-.062-4.75l-.036-2.672c.09-2.36.429-4.323 1.098-6.578"/><path fill="#4D2FB8" d="M235 376c-1.415 2.034-2.55 2.904-4.98 3.422-2.002.24-4.011.413-6.02.578v-2q1.9-.796 3.813-1.562l2.144-.88C232 375 232 375 235 376"/><path fill="#8BD631" d="M254 374c-2 2-2 2-3.945 2.195L244 376l-1-2c3.818-1.374 7.073-.68 11 0"/><path fill="#05B6E5" d="M632 338c6.571 4 6.571 4 8 8l-2 2-2-4h-2v-3h-2z"/><path fill="#F2A111" d="m571 693-2 4-1-2-6 2-1-2a328 328 0 0 1 3.875-1.562l2.18-.88C569 692 569 692 571 693"/><path fill="#4428BC" d="M442 656h6c1.257 2.906 2 4.796 2 8-1.5-1.375-1.5-1.375-3-3v-2l-5-2z"/><path fill="#4E18C8" d="M251 648q1.724 1.432 3.438 2.875l1.933 1.617C258 654 258 654 259 656h-5l-.875-1.875c-1.062-2.258-1.062-2.258-3.125-4.125z"/><path fill="#6A33B2" d="m793 627 1 3-7 7-2-1z"/><path fill="#3DCA5C" d="m322 626 7 1v10h-1v-8l-6-2z"/><path fill="#4926BC" d="M204 587c4.8 3.446 4.8 3.446 5.813 6.25L210 595l-2-1v-2h-5l-1-4z"/><path fill="#523BB9" d="m821 585 2 2c-3.625 4.875-3.625 4.875-7 6 1.625-5.75 1.625-5.75 5-8"/><path fill="#3BE24B" d="M381 547c3.558.61 6.683 1.578 10 3l-1 2h-6v-3l-3-1z"/><path fill="#F3AC0D" d="M568 262c-3.687 2.458-6.697 3.012-11 4l-1-3c4.041-.634 7.907-1.124 12-1"/><path fill="#3F21C8" d="m391 241 2 1a517 517 0 0 1-3.375 3.5l-1.898 1.969C386 249 386 249 384 249v-4l2.375-.875c2.722-.974 2.722-.974 4.625-3.125"/><path fill="#38C352" d="M334 592c2 2 2 2 2.125 4.625L336 599l3 1-2 1c-2.625-1.437-2.625-1.437-5-3z"/><path fill="#04D4D9" d="M405 514h7l1 4-7-1z"/><path fill="#F12BA1" d="m719 389 1 3c-1.375 1.5-1.375 1.5-3 3h-2c1.152-2.468 2.048-4.048 4-6m-6 7v3l-2 1z"/><path fill="#81C938" d="m223 275 3 1c0 8 0 8-2 12z"/><path fill="#541FC2" d="m318 233 1.875 2.438c1.867 2.6 1.867 2.6 4.125 3.562l-1 2a396 396 0 0 1-4-2.375c-.743-.44-1.485-.882-2.25-1.336L315 236v-2z"/><path fill="#E98421" d="M514 704c4.833-.083 9.237.047 14 1-3.228 2.152-4.284 2.2-8 2v-2h-6z"/><path fill="#34C356" d="M306 693h6l-1 3h2l1 3c-3.914-1.27-5.79-2.512-8-6"/><path fill="#56CA33" d="m186 534 6 3-1 2c-4.75.125-4.75.125-7-1z"/><path fill="#532CB9" d="m349 514 3 1v2h-2l-2 4-2-1 1-4h2z"/><path fill="#7035B4" d="M838 416h2l-.062 2.688c.055 2.934.393 5.467 1.062 8.312-2.823-3.192-3.624-5.768-4-10z"/><path fill="#5036AB" d="m214 385 2 1c-.625 1.938-.625 1.938-2 4-3.125.75-3.125.75-6 1l1-4 1.938-.437c2.037-.373 2.037-.373 3.062-1.563"/><path fill="#4F2EB2" d="M401 729h3l1 5-4 1a88 88 0 0 1-1-5z"/><path fill="#FBC208" d="M378 688h5l1 5-3 1z"/><path fill="#35C253" d="M284.563 671.938 287 672l1 4-4 1-3-4c1-1 1-1 3.563-1.062"/><path fill="#482EB2" d="M217 608c3.08 2.773 4.688 5.063 6 9-2.437-1.125-2.437-1.125-5-3-.812-3.187-.812-3.187-1-6"/><path fill="#7DC934" d="m180 439 4 1v3h-3l-1 3c-.934-3.01-1.044-3.867 0-7"/><path fill="#07B2E1" d="M620 329c6.75 1.75 6.75 1.75 9 4l-2 2-2-2c-1.65-.707-3.316-1.38-5-2z"/><path fill="#4E2FB2" d="m233 329 6 5c-1.875.625-1.875.625-4 1l-2-2z"/><path fill="#F1B40E" d="m377 258 1 2h3v3h-2l-1 3h-1z"/><path fill="#EB1988" d="M829 562h2c-1.156 3.912-2.355 6.875-5 10 .75-6.625.75-6.625 3-10"/><path fill="#4119CA" d="M196 405c0 3.999-1.726 5.802-4 9l-2-4 3-1c1.685-1.997 1.685-1.997 3-4"/><path fill="#6638B1" d="m580 201 4 2-2 4-3-2z"/><path fill="#EBAD14" d="M438 720h5l1 4-7-2z"/><path fill="#3C22C7" d="m608 700 2 1-2 2v4h-2v-2l-3-1z"/><path fill="#4B2CB4" d="M304 696c3 2 3 2 3.688 4.125L308 702l-4 1z"/><path fill="#4A2EB2" d="M236 634c3.4 1.133 4.053 2.125 6 5l-1 2c-1.937-.687-1.937-.687-4-2-.75-2.625-.75-2.625-1-5"/><path fill="#5126BB" d="m332 488 4 2-1 3h-4l-1-3h2z"/><path fill="#F21B8A" d="m841 435 2 1c.414 2.066.414 2.066.625 4.563l.227 2.503L844 445c-2.296-3.445-2.54-5.938-3-10"/><path fill="#54D152" d="m322 431 2 1v6h-3c-.043-2-.04-4 0-6z"/><path fill="#5DD34F" d="m312 402 3 1v5l-4-1z"/><path fill="#4325C0" d="m401 267 5 1c-1 2-1 2-2.848 2.633l-2.214.492-2.223.508L397 272z"/><path fill="#FB960E" d="m538 259 .75 1.75c1.417 2.55 3.126 4.268 5.25 6.25-4.875-.875-4.875-.875-6-2-.04-2-.043-4 0-6"/><path fill="#532AC0" d="M597 255h-2v2h-3v2h-2v-4c3.133-1.044 3.99-.934 7 0"/>
  </g>

  <!-- UniFi text -->
  <g fill="#FFFFFF" transform="translate(38, -1) scale(0.65)">
    <path d="M27.91 35.67Q27.91 39.62 27.04 42.57Q26.17 45.51 24.19 47.46Q22.31 49.32 19.80 50.17Q17.29 51.03 13.94 51.03Q10.52 51.03 7.98 50.12Q5.44 49.22 3.71 47.46Q1.73 45.46 0.87 42.63Q0 39.79 0 35.67L0 13.92L4.83 13.92L4.83 35.91Q4.83 38.87 5.24 40.58Q5.64 42.29 6.59 43.68Q7.67 45.26 9.51 46.07Q11.35 46.88 13.94 46.88Q16.55 46.88 18.38 46.08Q20.21 45.29 21.31 43.68Q22.27 42.29 22.67 40.49Q23.07 38.70 23.07 36.04L23.07 13.92L27.91 13.92L27.91 35.67ZM59.57 50.27L54.98 50.27L54.98 34.74Q54.98 32.86 54.76 31.21Q54.54 29.57 53.96 28.64Q53.34 27.61 52.20 27.11Q51.05 26.61 49.22 26.61Q47.34 26.61 45.29 27.54Q43.24 28.47 41.36 29.91L41.36 50.27L36.77 50.27L36.77 23.00L41.36 23.00L41.36 26.03Q43.51 24.24 45.80 23.24Q48.10 22.24 50.51 22.24Q54.93 22.24 57.25 24.90Q59.57 27.56 59.57 32.57L59.57 50.27ZM73.34 18.43L68.16 18.43L68.16 13.67L73.34 13.67L73.34 18.43M73.05 50.27L68.46 50.27L68.46 23.00L73.05 23.00L73.05 50.27ZM105.71 18.21L87.33 18.21L87.33 28.47L103.13 28.47L103.13 32.76L87.33 32.76L87.33 50.27L82.50 50.27L82.50 13.92L105.71 13.92L105.71 18.21ZM115.80 18.43L110.62 18.43L110.62 13.67L115.80 13.67L115.80 18.43M115.50 50.27L110.91 50.27L110.91 23.00L115.50 23.00L115.50 50.27Z"/>
  </g>
</svg>